G04 ================== begin FILE IDENTIFICATION RECORD ==================*
G04 Layout Name:  pcb_ruler.brd*
G04 Film Name:    TOP*
G04 File Format:  Gerber RS274X*
G04 File Origin:  Cadence Allegro 23.1-S004*
G04 Origin Date:  Wed Jun 19 14:31:56 2024*
G04 *
G04 Layer:  ETCH/TOP*
G04 Layer:  PIN/TOP*
G04 Layer:  VIA CLASS/TOP*
G04 *
G04 Offset:    (0.0000 0.0000)*
G04 Mirror:    No*
G04 Mode:      Positive*
G04 Rotation:  0*
G04 FullContactRelief:  No*
G04 UndefLineWidth:     0.0000*
G04 ================== end FILE IDENTIFICATION RECORD ====================*
%FSLAX55Y55*MOMM*%
%IR0*IPPOS*OFA0.00000B0.00000*MIA0B0*SFA1.00000B1.00000*%
%ADD17R,.5499X.5999*%
%ADD12R,.5X3.3*%
%ADD35R,1.45X.3*%
%ADD38R,.3X1.45*%
%ADD16R,1.1001X.65*%
%ADD20R,.55X1.3*%
%ADD40R,1.45X.6*%
%ADD39R,.6X1.45*%
%ADD27R,10.8X9.4*%
%ADD26R,.8X4.6*%
%ADD37R,1.475X.3*%
%ADD36R,.3X1.475*%
%ADD41R,1.475X.6*%
%ADD33R,1.65X.65*%
%ADD42R,.6X1.475*%
%ADD34C,.29*%
%ADD30R,1.526X.435*%
%ADD21R,.8X1.475*%
%ADD28R,10.66X8.38*%
%ADD23R,1.7501X.95*%
%ADD31R,1.27X.5588*%
%ADD13R,1.3X3.3*%
%ADD11R,1.2X1.6*%
%ADD15R,2.2X3.15*%
%ADD14R,1.5X2.7*%
%ADD29R,1.016X3.05*%
%ADD32R,.85X.3*%
%ADD10R,1.27X2.54*%
%ADD19R,1.85X3.125*%
%ADD25R,6.1801X5.6901*%
%ADD24R,2.286X1.397*%
%ADD18R,.4X.8999*%
%ADD22R,1.7501X3.1999*%
%ADD43C,.127*%
%ADD44C,.254*%
%ADD45C,.508*%
%ADD46C,.635*%
%ADD47C,1.*%
%ADD48C,2.*%
%ADD49C,1.27*%
%ADD50C,1.78*%
G75*
%LPD*%
G75*
G54D10*
X9931400Y17646700D03*
X10185400D03*
X9931400Y18192700D03*
X10185400D03*
X10439400Y17646700D03*
X10693400D03*
X10439400Y18192700D03*
X10693400D03*
X10947400Y17646700D03*
Y18192700D03*
X11430000Y17659400D03*
X11684000D03*
X11430000Y18205400D03*
X11684000D03*
X11938000Y17659400D03*
X12192000D03*
X11938000Y18205400D03*
X12192000D03*
X12446000Y17659400D03*
Y18205400D03*
G54D11*
X13055000Y18800000D03*
X13345000D03*
G54D20*
X17782400Y18756600D03*
X18082400D03*
G54D21*
X17932400Y18765400D03*
G54D30*
X23249200Y16706800D03*
Y16770400D03*
Y16833800D03*
Y16897400D03*
Y16960800D03*
Y17024400D03*
Y17087800D03*
Y17151400D03*
Y17214800D03*
Y17278400D03*
Y17341800D03*
Y17405400D03*
Y17468800D03*
Y17532400D03*
X23791600Y16833800D03*
Y16770400D03*
Y16706800D03*
Y17341800D03*
Y17278400D03*
Y17214800D03*
Y17151400D03*
Y17087800D03*
Y17024400D03*
Y16960800D03*
Y16897400D03*
Y17532400D03*
Y17468800D03*
Y17405400D03*
G54D12*
X13728400Y18897600D03*
X14008400D03*
G54D22*
X18480990Y18948400D03*
G54D13*
X13868400Y18897600D03*
G54D31*
X23446740Y18194020D03*
X23187660D03*
Y18288000D03*
X23446740Y18381980D03*
X23187660D03*
G54D40*
X26247500Y16839600D03*
Y16919600D03*
Y16999600D03*
Y17079600D03*
Y17159600D03*
Y17239600D03*
Y17319600D03*
Y17399600D03*
X27092500Y16839600D03*
Y17319600D03*
Y17239600D03*
Y17159600D03*
Y17079600D03*
Y16999600D03*
Y16919600D03*
Y17399600D03*
X27415900Y16839600D03*
Y16919600D03*
Y16999600D03*
Y17079600D03*
Y17159600D03*
Y17239600D03*
Y17319600D03*
Y17399600D03*
X28260900Y16839600D03*
Y17319600D03*
Y17239600D03*
Y17159600D03*
Y17079600D03*
Y16999600D03*
Y16919600D03*
Y17399600D03*
G54D50*
G01X12192000Y18205400D02*
Y19735600D01*
X12014000Y19913600D01*
X10363400D01*
X10185400Y19735600D01*
Y18192700D01*
G54D32*
X23931900Y18363000D03*
Y18313000D03*
Y18263000D03*
Y18213000D03*
X23616900D03*
Y18263000D03*
Y18313000D03*
Y18363000D03*
G54D14*
X14441200Y18846800D03*
X14921200D03*
G54D23*
X19111010Y18718400D03*
Y19178400D03*
Y18948400D03*
G54D41*
X28585400Y16872000D03*
Y16952000D03*
Y17032000D03*
Y17112000D03*
Y17192000D03*
Y17272000D03*
Y17352000D03*
Y17432000D03*
Y17512000D03*
Y17592000D03*
Y17672000D03*
X29733000Y17352000D03*
Y17272000D03*
Y17192000D03*
Y17112000D03*
Y17032000D03*
Y16952000D03*
Y16872000D03*
Y17672000D03*
Y17592000D03*
Y17512000D03*
Y17432000D03*
G54D24*
X19672300Y18891300D03*
Y19208700D03*
G54D15*
X15347200Y18948400D03*
X16047200D03*
G54D42*
X29079200Y16698200D03*
X28999200D03*
X28919200D03*
X28839200D03*
X28759200D03*
Y17845800D03*
X28839200D03*
X28919200D03*
X28999200D03*
X29079200D03*
X29559200Y16698200D03*
X29479200D03*
X29399200D03*
X29319200D03*
X29239200D03*
X29159200D03*
Y17845800D03*
X29239200D03*
X29319200D03*
X29399200D03*
X29479200D03*
X29559200D03*
G54D33*
X24109800Y16675100D03*
Y16802100D03*
Y16929100D03*
Y17056100D03*
Y17183100D03*
Y17310100D03*
Y17437100D03*
Y17564100D03*
X24759800Y16802100D03*
Y16675100D03*
Y17310100D03*
Y17183100D03*
Y17056100D03*
Y16929100D03*
Y17564100D03*
Y17437100D03*
G54D43*
G01X11430000Y17659400D02*
Y16992600D01*
X11391900Y16954500D01*
X10985500D01*
X10947400Y16992600D01*
Y17646700D01*
G01X11430000Y18205400D02*
Y18442240D01*
X11201400D01*
Y18467640D01*
X11430000D01*
Y18493040D01*
X11201400D01*
Y18518440D01*
X11430000D01*
Y18543840D01*
X11201400D01*
Y18569240D01*
X11430000D01*
Y18594640D01*
X11201400D01*
Y18620040D01*
X11430000D01*
Y18645440D01*
X11201400D01*
Y18670840D01*
X11430000D01*
Y18696240D01*
X11201400D01*
Y18721640D01*
X11430000D01*
Y18747040D01*
X11201400D01*
Y18772440D01*
X11430000D01*
Y18797840D01*
X11201400D01*
Y18823240D01*
X11430000D01*
Y18848640D01*
X11201400D01*
Y18874040D01*
X11430000D01*
Y18899440D01*
X11201400D01*
Y18924840D01*
X11430000D01*
Y18950240D01*
X11201400D01*
Y18975640D01*
X11430000D01*
Y19001040D01*
X11201400D01*
Y19026440D01*
X11430000D01*
Y19051840D01*
X11201400D01*
Y19077240D01*
X11430000D01*
Y19102640D01*
X11201400D01*
Y19128040D01*
X11430000D01*
Y19153440D01*
X11201400D01*
Y19178840D01*
X11430000D01*
Y19253200D01*
X11379200Y19304000D01*
X11049000D01*
Y19278600D01*
X11353800D01*
Y19253200D01*
X11023600D01*
Y19304000D01*
X10998200D01*
X10947400Y19253200D01*
Y19220040D01*
X11176000D01*
Y19194640D01*
X10947400D01*
Y19169240D01*
X11176000D01*
Y19143840D01*
X10947400D01*
Y19118440D01*
X11176000D01*
Y19093040D01*
X10947400D01*
Y19067640D01*
X11176000D01*
Y19042240D01*
X10947400D01*
Y19016840D01*
X11176000D01*
Y18991440D01*
X10947400D01*
Y18966040D01*
X11176000D01*
Y18940640D01*
X10947400D01*
Y18915240D01*
X11176000D01*
Y18889840D01*
X10947400D01*
Y18864440D01*
X11176000D01*
Y18839040D01*
X10947400D01*
Y18813640D01*
X11176000D01*
Y18788240D01*
X10947400D01*
Y18762840D01*
X11176000D01*
Y18737440D01*
X10947400D01*
Y18712040D01*
X11176000D01*
Y18686640D01*
X10947400D01*
Y18661240D01*
X11176000D01*
Y18635840D01*
X10947400D01*
Y18610440D01*
X11176000D01*
Y18585040D01*
X10947400D01*
Y18559640D01*
X11176000D01*
Y18534240D01*
X10947400D01*
Y18508840D01*
X11176000D01*
Y18483440D01*
X10947400D01*
Y18458040D01*
X11176000D01*
Y18432640D01*
X10947400D01*
Y18192700D01*
G54D25*
X20315810Y19050000D03*
G54D34*
X24484800Y18292000D03*
X24434800D03*
X24384800D03*
X24334800D03*
X24284800D03*
X24234800D03*
X24184800D03*
X24484800Y18342000D03*
X24434800D03*
X24384800D03*
X24334800D03*
X24284800D03*
X24234800D03*
X24184800D03*
X24484800Y18392000D03*
X24434800D03*
X24384800D03*
X24334800D03*
X24234800D03*
X24184800D03*
X24484800Y18442000D03*
X24384800D03*
X24284800D03*
X24234800D03*
X24184800D03*
X24334800Y18492000D03*
X24284800D03*
X24234800D03*
X24184800D03*
X24284800Y18542000D03*
X24234800D03*
X24184800D03*
X24334800Y18592000D03*
X24284800D03*
X24234800D03*
X24184800D03*
X24484800Y18642000D03*
X24384800D03*
X24284800D03*
X24234800D03*
X24184800D03*
X24484800Y18692000D03*
X24434800D03*
X24384800D03*
X24334800D03*
X24234800D03*
X24184800D03*
X24484800Y18742000D03*
X24434800D03*
X24384800D03*
X24334800D03*
X24284800D03*
X24234800D03*
X24184800D03*
X24484800Y18792000D03*
X24434800D03*
X24384800D03*
X24334800D03*
X24284800D03*
X24234800D03*
X24184800D03*
X24684800Y18292000D03*
X24634800D03*
X24584800D03*
X24534800D03*
X24684800Y18342000D03*
X24634800D03*
X24584800D03*
X24534800D03*
X24684800Y18392000D03*
X24634800D03*
X24534800D03*
X24684800Y18442000D03*
X24634800D03*
X24584800D03*
X24684800Y18492000D03*
X24634800D03*
X24584800D03*
X24534800D03*
X24684800Y18542000D03*
X24634800D03*
X24584800D03*
X24684800Y18592000D03*
X24634800D03*
X24584800D03*
X24534800D03*
X24684800Y18642000D03*
X24634800D03*
X24584800D03*
X24684800Y18692000D03*
X24634800D03*
X24534800D03*
X24684800Y18742000D03*
X24634800D03*
X24584800D03*
X24534800D03*
X24684800Y18792000D03*
X24634800D03*
X24584800D03*
X24534800D03*
G54D16*
X16354200Y18699990D03*
Y18892010D03*
X16564200Y18796000D03*
G54D44*
G01X11684000Y17659400D02*
Y16954500D01*
X11620500Y16891000D01*
X10731500D01*
X10693400Y16929100D01*
Y17646700D01*
G54D26*
X20853400Y16917500D03*
X20726400D03*
X20599400D03*
X21361400D03*
X21234400D03*
X21107400D03*
G54D35*
X24977400Y18421000D03*
Y18471000D03*
Y18521000D03*
Y18571000D03*
Y18621000D03*
Y18671000D03*
Y18721000D03*
Y18771000D03*
Y18821000D03*
Y18871000D03*
Y18921000D03*
Y18971000D03*
Y19021000D03*
Y19071000D03*
Y19121000D03*
Y19171000D03*
X26127400Y18871000D03*
Y18821000D03*
Y18771000D03*
Y18721000D03*
Y18671000D03*
Y18621000D03*
Y18571000D03*
Y18521000D03*
Y18471000D03*
Y18421000D03*
Y19171000D03*
Y19121000D03*
Y19071000D03*
Y19021000D03*
Y18971000D03*
Y18921000D03*
G54D17*
X17032200Y18754290D03*
X16902200D03*
X16967200Y18939310D03*
G54D45*
G01X11938000Y17659400D02*
Y16954500D01*
X11811000Y16827500D01*
X10541000D01*
X10439400Y16929100D01*
Y17646700D01*
G54D18*
X17323590Y18665190D03*
X17373600Y18825210D03*
X17423610Y18665190D03*
G54D36*
X25476600Y16695800D03*
X25426600D03*
X25376600D03*
X25326600D03*
X25276600D03*
X25226600D03*
Y17543400D03*
X25276600D03*
X25326600D03*
X25376600D03*
X25426600D03*
X25476600D03*
X25776600Y16695800D03*
X25726600D03*
X25676600D03*
X25626600D03*
X25576600D03*
X25526600D03*
Y17543400D03*
X25576600D03*
X25626600D03*
X25676600D03*
X25726600D03*
X25776600D03*
X27028000Y18225400D03*
X26978000D03*
X26928000D03*
X26878000D03*
X26828000D03*
X26778000D03*
X26728000D03*
X26678000D03*
X26628000D03*
X26578000D03*
Y19773000D03*
X26628000D03*
X26678000D03*
X26728000D03*
X26778000D03*
X26828000D03*
X26878000D03*
X26928000D03*
X26978000D03*
X27028000D03*
X27528000Y18225400D03*
X27478000D03*
X27428000D03*
X27378000D03*
X27328000D03*
X27278000D03*
X27228000D03*
X27178000D03*
X27128000D03*
X27078000D03*
Y19773000D03*
X27128000D03*
X27178000D03*
X27228000D03*
X27278000D03*
X27328000D03*
X27378000D03*
X27428000D03*
X27478000D03*
X27528000D03*
X27778000Y18225400D03*
X27728000D03*
X27678000D03*
X27628000D03*
X27578000D03*
Y19773000D03*
X27628000D03*
X27678000D03*
X27728000D03*
X27778000D03*
X30557400Y16698200D03*
X30507400D03*
X30457400D03*
X30407400D03*
X30357400D03*
X30307400D03*
X30257400D03*
Y17845800D03*
X30307400D03*
X30357400D03*
X30407400D03*
X30457400D03*
X30507400D03*
X30557400D03*
X31007400Y16698200D03*
X30957400D03*
X30907400D03*
X30857400D03*
X30807400D03*
X30757400D03*
X30707400D03*
X30657400D03*
X30607400D03*
Y17845800D03*
X30657400D03*
X30707400D03*
X30757400D03*
X30807400D03*
X30857400D03*
X30907400D03*
X30957400D03*
X31007400D03*
G54D27*
X20980400Y17832500D03*
G54D46*
G01X12446000Y18205400D02*
Y19964400D01*
X12293600Y20116800D01*
X10083800D01*
X9931400Y19964400D01*
Y18192700D01*
G01X11684000Y18205400D02*
Y19405600D01*
X11607800Y19481800D01*
X10769600D01*
X10693400Y19405600D01*
Y18192700D01*
G54D19*
X17932400Y18995400D03*
G54D28*
X22402800Y17946900D03*
G54D37*
X25077800Y16844600D03*
Y16894600D03*
Y16944600D03*
Y16994600D03*
Y17044600D03*
Y17094600D03*
Y17144600D03*
Y17194600D03*
Y17244600D03*
Y17294600D03*
Y17344600D03*
Y17394600D03*
X25925400Y17344600D03*
Y17294600D03*
Y17244600D03*
Y17194600D03*
Y17144600D03*
Y17094600D03*
Y17044600D03*
Y16994600D03*
Y16944600D03*
Y16894600D03*
Y16844600D03*
Y17394600D03*
X26404200Y18399200D03*
Y18449200D03*
Y18499200D03*
Y18549200D03*
Y18599200D03*
Y18649200D03*
Y18699200D03*
Y18749200D03*
Y18799200D03*
Y18849200D03*
Y18899200D03*
Y18949200D03*
Y18999200D03*
Y19049200D03*
Y19099200D03*
Y19149200D03*
Y19199200D03*
Y19249200D03*
Y19299200D03*
Y19349200D03*
Y19399200D03*
Y19449200D03*
Y19499200D03*
Y19549200D03*
Y19599200D03*
X27951800Y18849200D03*
Y18799200D03*
Y18749200D03*
Y18699200D03*
Y18649200D03*
Y18599200D03*
Y18549200D03*
Y18499200D03*
Y18449200D03*
Y18399200D03*
Y19349200D03*
Y19299200D03*
Y19249200D03*
Y19199200D03*
Y19149200D03*
Y19099200D03*
Y19049200D03*
Y18999200D03*
Y18949200D03*
Y18899200D03*
Y19599200D03*
Y19549200D03*
Y19499200D03*
Y19449200D03*
Y19399200D03*
X30058600Y16897000D03*
Y16947000D03*
Y16997000D03*
Y17047000D03*
Y17097000D03*
Y17147000D03*
Y17197000D03*
Y17247000D03*
Y17297000D03*
Y17347000D03*
Y17397000D03*
Y17447000D03*
Y17497000D03*
Y17547000D03*
Y17597000D03*
Y17647000D03*
X31206200Y17347000D03*
Y17297000D03*
Y17247000D03*
Y17197000D03*
Y17147000D03*
Y17097000D03*
Y17047000D03*
Y16997000D03*
Y16947000D03*
Y16897000D03*
Y17647000D03*
Y17597000D03*
Y17547000D03*
Y17497000D03*
Y17447000D03*
Y17397000D03*
G54D47*
G01X12192000Y17659400D02*
Y16827500D01*
X12065000Y16700500D01*
X10350500D01*
X10185400Y16865600D01*
Y17646700D01*
G54D29*
X22402800Y16916400D03*
X22232600D03*
X22062400D03*
X22743200D03*
X22573000D03*
G54D38*
X25477400Y18221000D03*
X25427400D03*
X25377400D03*
X25327400D03*
X25277400D03*
X25227400D03*
X25177400D03*
Y19371000D03*
X25227400D03*
X25277400D03*
X25327400D03*
X25377400D03*
X25427400D03*
X25477400D03*
X25927400Y18221000D03*
X25877400D03*
X25827400D03*
X25777400D03*
X25727400D03*
X25677400D03*
X25627400D03*
X25577400D03*
X25527400D03*
Y19371000D03*
X25577400D03*
X25627400D03*
X25677400D03*
X25727400D03*
X25777400D03*
X25827400D03*
X25877400D03*
X25927400D03*
G54D48*
G01X9931400Y17646700D02*
Y16710000D01*
X10131400Y16510000D01*
X12246000D01*
X12446000Y16710000D01*
Y17659400D01*
G54D39*
X26470000Y16697100D03*
X26390000D03*
Y17542100D03*
X26470000D03*
X26950000Y16697100D03*
X26870000D03*
X26790000D03*
X26710000D03*
X26630000D03*
X26550000D03*
Y17542100D03*
X26630000D03*
X26710000D03*
X26790000D03*
X26870000D03*
X26950000D03*
X27558400Y16697100D03*
Y17542100D03*
X28038400Y16697100D03*
X27958400D03*
X27878400D03*
X27798400D03*
X27718400D03*
X27638400D03*
Y17542100D03*
X27718400D03*
X27798400D03*
X27878400D03*
X27958400D03*
X28038400D03*
X28118400Y16697100D03*
Y17542100D03*
G54D49*
G01X11938000Y18205400D02*
Y19507200D01*
X11734800Y19710400D01*
X10591800D01*
X10439400Y19558000D01*
Y18192700D01*
M02*
